<svg width="150" height="42" viewBox="0 0 150 42" fill="none" xmlns="http://www.w3.org/2000/svg">
<g filter="url(#filter0_d_10_243)">
<path d="M4.5625 25.4922L7.45312 24.4766C9.19792 27.4974 11.9062 29.0078 15.5781 29.0078C17.6094 29.0078 19.263 28.513 20.5391 27.5234C21.8151 26.5339 22.4531 25.1797 22.4531 23.4609C22.4531 22.6016 22.2708 21.8464 21.9062 21.1953C21.5417 20.5182 20.9557 19.9323 20.1484 19.4375C19.3672 18.9427 18.638 18.5521 17.9609 18.2656C17.2839 17.9792 16.3594 17.6406 15.1875 17.25C14.25 16.9375 13.5859 16.7161 13.1953 16.5859C12.8047 16.4557 12.1797 16.2214 11.3203 15.8828C10.487 15.5443 9.86198 15.2448 9.44531 14.9844C9.05469 14.724 8.5599 14.3724 7.96094 13.9297C7.36198 13.4609 6.91927 12.9922 6.63281 12.5234C6.3724 12.0547 6.125 11.4948 5.89062 10.8438C5.68229 10.1667 5.57812 9.45052 5.57812 8.69531C5.57812 6.3776 6.46354 4.52865 8.23438 3.14844C10.0052 1.74219 12.375 1.03906 15.3438 1.03906C17.6094 1.03906 19.5755 1.5599 21.2422 2.60156C22.9349 3.64323 24.1458 4.94531 24.875 6.50781L22.2188 7.44531C20.6823 4.94531 18.3646 3.69531 15.2656 3.69531C13.2344 3.69531 11.6458 4.15104 10.5 5.0625C9.35417 5.97396 8.78125 7.1849 8.78125 8.69531C8.78125 9.3724 8.9375 10.0104 9.25 10.6094C9.5625 11.1823 9.90104 11.651 10.2656 12.0156C10.6562 12.3542 11.2682 12.7318 12.1016 13.1484C12.9609 13.5391 13.625 13.8255 14.0938 14.0078C14.5885 14.1641 15.3828 14.4245 16.4766 14.7891C16.737 14.8672 16.9323 14.9323 17.0625 14.9844C18.3385 15.401 19.4062 15.8047 20.2656 16.1953C21.125 16.5859 22.0104 17.1068 22.9219 17.7578C23.8333 18.4089 24.5104 19.2031 24.9531 20.1406C25.4219 21.0521 25.6562 22.1198 25.6562 23.3438C25.6562 25.974 24.7318 28.0312 22.8828 29.5156C21.0599 30.974 18.599 31.7031 15.5 31.7031C12.8438 31.7031 10.5911 31.1432 8.74219 30.0234C6.89323 28.9036 5.5 27.3932 4.5625 25.4922ZM30.6953 31V0.648438H33.7422V20.5312L42.8828 9.98438H46.8672L39.3672 18.3828L47.7266 31H44.0547L37.4141 20.4922L33.7422 24.5938V31H30.6953ZM50.9297 5.25781V1.3125H54.7578V5.25781H50.9297ZM51.3984 31V9.98438H54.3672V31H51.3984ZM61.8281 31V0.648438H64.7969V31H61.8281ZM71.9844 31V0.648438H74.9531V31H71.9844ZM81.9062 31V0.648438H84.875V13.3828H84.9531C85.474 12.263 86.3073 11.2995 87.4531 10.4922C88.625 9.6849 89.9531 9.28125 91.4375 9.28125C95.9688 9.28125 98.2344 11.9896 98.2344 17.4062V31H95.2656V17.9141C95.2656 13.8516 93.8073 11.8203 90.8906 11.8203C89.276 11.8203 87.8698 12.4844 86.6719 13.8125C85.474 15.1406 84.875 16.7161 84.875 18.5391V31H81.9062ZM104.055 23.6172V9.98438H107.102V22.9922C107.102 27.1068 108.612 29.1641 111.633 29.1641C113.482 29.1641 114.888 28.4479 115.852 27.0156C116.841 25.5833 117.336 23.8906 117.336 21.9375V9.98438H120.305V31H117.414V27.6016C117.206 28.4609 116.555 29.3594 115.461 30.2969C114.393 31.2344 112.883 31.7031 110.93 31.7031C108.924 31.7031 107.271 31.026 105.969 29.6719C104.693 28.2917 104.055 26.2734 104.055 23.6172ZM126.828 31V0.648438H129.797V13.7344C130.161 12.6406 130.93 11.625 132.102 10.6875C133.273 9.75 134.641 9.28125 136.203 9.28125C138.807 9.28125 140.93 10.2839 142.57 12.2891C144.211 14.2682 145.031 16.9896 145.031 20.4531C145.031 22.3802 144.758 24.099 144.211 25.6094C143.69 27.0938 142.987 28.2656 142.102 29.125C141.242 29.9844 140.305 30.6224 139.289 31.0391C138.299 31.4818 137.271 31.7031 136.203 31.7031C134.719 31.7031 133.404 31.2734 132.258 30.4141C131.112 29.5286 130.292 28.474 129.797 27.25V31H126.828ZM129.719 20.4531C129.719 23.1094 130.305 25.2318 131.477 26.8203C132.674 28.3828 134.12 29.1641 135.812 29.1641C137.609 29.1641 139.081 28.3958 140.227 26.8594C141.398 25.2969 141.984 23.1615 141.984 20.4531C141.984 17.8229 141.411 15.7266 140.266 14.1641C139.12 12.6016 137.635 11.8203 135.812 11.8203C134.12 11.8203 132.674 12.6016 131.477 14.1641C130.305 15.7266 129.719 17.8229 129.719 20.4531Z" fill="#AB7FBC"/>
</g>
<defs>
<filter id="filter0_d_10_243" x="0.5625" y="0.648438" width="148.469" height="41.0547" filterUnits="userSpaceOnUse" color-interpolation-filters="sRGB">
<feFlood flood-opacity="0" result="BackgroundImageFix"/>
<feColorMatrix in="SourceAlpha" type="matrix" values="0 0 0 0 0 0 0 0 0 0 0 0 0 0 0 0 0 0 127 0" result="hardAlpha"/>
<feOffset dy="6"/>
<feGaussianBlur stdDeviation="2"/>
<feComposite in2="hardAlpha" operator="out"/>
<feColorMatrix type="matrix" values="0 0 0 0 0 0 0 0 0 0 0 0 0 0 0 0 0 0 0.25 0"/>
<feBlend mode="normal" in2="BackgroundImageFix" result="effect1_dropShadow_10_243"/>
<feBlend mode="normal" in="SourceGraphic" in2="effect1_dropShadow_10_243" result="shape"/>
</filter>
</defs>
</svg>
